

<!-- Uploaded to: SVG Repo, www.svgrepo.com, Generator: SVG Repo Mixer Tools -->
<svg  viewBox="0 0 16666.66 16666.66" style="shape-rendering:geometricPrecision; text-rendering:geometricPrecision; image-rendering:optimizeQuality; fill-rule:evenodd; clip-rule:evenodd" version="1.1" xml:space="preserve" xmlns="http://www.w3.org/2000/svg" xmlns:xlink="http://www.w3.org/1999/xlink" xmlns:xodm="http://www.corel.com/coreldraw/odm/2003">

<defs>

<style type="text/css">
   <![CDATA[
    .fil0 {fill:none}
    .fil2 {fill:black;fill-rule:nonzero}
    .fil1 {fill:#ACD4F7;fill-rule:nonzero}
    .fil4 {fill:#DEDEDE;fill-rule:nonzero}
    .fil3 {fill:white;fill-rule:nonzero}
   ]]>
  </style>

</defs>

<g id="Layer_x0020_1">

<rect class="fil0" height="16666.66" width="16666.66" x="-0" y="-0"/>

<g id="_1315271363104">

<path class="fil1" d="M2300.13 13990.21l0 -11313.74c0,-875.07 709.45,-1584.52 1584.52,-1584.52l5157.11 0c875.07,0 1584.52,709.45 1584.52,1584.52l0 11313.74c0,875.13 -709.45,1584.65 -1584.52,1584.65l-5157.11 0c-875.07,0 -1584.52,-709.51 -1584.52,-1584.65z"/>

<path class="fil2" d="M3881.84 1188.97c-818.68,0 -1484.82,666.01 -1484.82,1484.82l0 11319.2c0,818.81 666.14,1484.85 1484.82,1484.85l5162.73 0c818.68,0 1484.82,-666.04 1484.82,-1484.85l0 -11319.2c0,-818.81 -666.14,-1484.82 -1484.82,-1484.82l-5162.73 0zm5162.73 14482.62l-5162.73 0c-925.61,0 -1678.59,-752.99 -1678.59,-1678.6l0 -11319.2c0,-925.61 752.98,-1678.72 1678.59,-1678.72l5162.73 0c925.61,0 1678.59,753.11 1678.59,1678.72l0 11319.2c0,925.61 -752.98,1678.6 -1678.59,1678.6z"/>

<polygon class="fil3" points="2300.13,13553.63 10626.31,13553.63 10626.31,2632.27 2300.13,2632.27 "/>

<path class="fil2" d="M2397.02 13456.74l8132.37 0 0 -10727.7 -8132.37 0 0 10727.7zm8229.26 193.78l-8326.15 0c-53.45,0 -96.89,-43.31 -96.89,-96.89l0 -10921.48c0,-53.45 43.44,-96.89 96.89,-96.89l8326.15 0c53.44,0 96.89,43.44 96.89,96.89l0 10921.48c0,53.57 -43.44,96.89 -96.89,96.89z"/>

<path class="fil2" d="M7297.66 14435.48l-1499.63 0c-53.57,0 -97.02,-43.47 -97.02,-96.89 0,-53.45 43.44,-96.92 97.02,-96.92l1499.63 0c53.48,0 96.92,43.47 96.92,96.92 0,53.42 -43.44,96.89 -96.92,96.89z"/>

<path class="fil2" d="M7368.06 4747.58l-3681.99 0c-53.57,0 -96.92,-43.44 -96.92,-96.92 0,-53.45 43.35,-96.89 96.92,-96.89l3681.99 0c53.45,0 96.89,43.44 96.89,96.89 0,53.48 -43.44,96.92 -96.89,96.92z"/>

<path class="fil2" d="M5527.06 7013.45l-1840.99 0c-53.57,0 -96.92,-43.44 -96.92,-96.89 0,-53.45 43.35,-96.89 96.92,-96.89l1840.99 0c53.45,0 96.89,43.44 96.89,96.89 0,53.45 -43.44,96.89 -96.89,96.89z"/>

<path class="fil2" d="M5527.06 9279.22l-1840.99 0c-53.57,0 -96.92,-43.44 -96.92,-96.89 0,-53.45 43.35,-96.89 96.92,-96.89l1840.99 0c53.45,0 96.89,43.44 96.89,96.89 0,53.45 -43.44,96.89 -96.89,96.89z"/>

<path class="fil2" d="M5527.06 11545l-1840.99 0c-53.57,0 -96.92,-43.31 -96.92,-96.89 0,-53.45 43.35,-96.89 96.92,-96.89l1840.99 0c53.45,0 96.89,43.44 96.89,96.89 0,53.57 -43.44,96.89 -96.89,96.89z"/>

<polygon class="fil3" points="9746.22,12493.59 11506.43,12493.59 11506.43,5129.46 9746.22,5129.46 "/>

<path class="fil2" d="M9843.11 12396.67l1566.46 0 0 -7170.2 -1566.46 0 0 7170.2zm1663.35 193.81l-1760.24 0c-53.48,0 -96.92,-43.47 -96.92,-96.89l0 -7364.01c0,-53.48 43.44,-96.89 96.92,-96.89l1760.24 0c53.57,0 96.89,43.41 96.89,96.89l0 7364.01c0,53.42 -43.31,96.89 -96.89,96.89z"/>

<polygon class="fil1" points="12606.27,12493.59 14366.45,12493.59 14366.45,7679.33 12606.27,7679.33 "/>

<path class="fil2" d="M12703.16 12396.67l1566.46 0 0 -4620.42 -1566.46 0 0 4620.42zm1663.35 193.81l-1760.36 0c-53.45,0 -96.89,-43.47 -96.89,-96.89l0 -4814.23c0,-53.48 43.44,-96.89 96.89,-96.89l1760.36 0c53.48,0 96.92,43.41 96.92,96.89l0 4814.23c0,53.42 -43.44,96.89 -96.92,96.89z"/>

<polygon class="fil3" points="6886.14,12493.59 8646.28,12493.59 8646.28,6871.79 6886.14,6871.79 "/>

<path class="fil2" d="M6983.03 12396.67l1566.36 0 0 -5427.99 -1566.36 0 0 5427.99zm1663.38 193.81l-1760.36 0c-53.48,0 -96.89,-43.47 -96.89,-96.89l0 -5621.8c0,-53.45 43.41,-96.89 96.89,-96.89l1760.36 0c53.45,0 96.89,43.44 96.89,96.89l0 5621.8c0,53.42 -43.44,96.89 -96.89,96.89z"/>

<path class="fil2" d="M7438.9 12245.58l-19.07 -6.28c-112.71,-81.96 -221.85,-171.4 -324.42,-265.85 -13.04,-12.12 -13.92,-32.49 -1.89,-45.62 12.15,-13.07 32.74,-13.93 45.65,-1.93 100.68,92.79 207.95,180.68 318.64,261.15 14.49,10.48 17.61,30.69 7.13,45.11l-26.05 13.42z"/>

<path class="fil2" d="M8019.48 12234.18l-20.71 -7.45 -890 -742.85c-13.7,-11.49 -15.47,-31.85 -4.01,-45.46 11.49,-13.7 31.86,-15.47 45.46,-4.13l889.97 742.88c13.7,11.36 15.47,31.73 4.13,45.43l-24.85 11.59z"/>

<path class="fil2" d="M8386.1 11908.88l-19.6 -6.57 -1255.93 -956.71c-14.27,-10.8 -17.05,-31 -6.13,-45.21 10.8,-14.14 31.29,-16.92 45.21,-6.12l1255.96 956.68c14.15,10.83 16.92,31.09 6.13,45.24l-25.64 12.69z"/>

<path class="fil2" d="M8402.14 11335.3l-17.81 -5.33c-435.7,-287 -864.27,-595.76 -1273.67,-917.75 -14.02,-11.02 -16.48,-31.29 -5.46,-45.33 11.14,-14.02 31.54,-16.35 45.33,-5.43 408.08,320.85 835.07,628.6 1269.44,914.59 14.81,9.79 18.94,29.87 9.12,44.77 -6.22,9.34 -16.48,14.49 -26.96,14.49z"/>

<path class="fil2" d="M8385.35 10741.91l-18.37 -5.78c-423.45,-292.28 -845.55,-598.35 -1254.42,-909.7 -14.24,-10.86 -16.92,-31.06 -6.13,-45.27 10.8,-14.2 31.07,-16.92 45.21,-6.06 408.2,310.68 829.41,616.19 1252.08,907.9 14.68,10.14 18.37,30.28 8.24,44.99 -6.25,9 -16.39,13.93 -26.61,13.93z"/>

<path class="fil2" d="M8378.31 10145.04l-18.59 -5.91 -1265.31 -887.85c-14.58,-10.26 -18.15,-30.41 -7.89,-44.99 10.35,-14.62 30.5,-18.06 44.98,-7.83l1265.31 887.89c14.71,10.23 18.28,30.43 7.93,44.99 -6.25,8.93 -16.29,13.7 -26.43,13.7z"/>

<path class="fil2" d="M8383.68 9592.31l-17.84 -5.46c-429.32,-283.88 -855.78,-584.93 -1267.29,-894.45 -14.37,-10.67 -17.17,-30.94 -6.47,-45.21 10.8,-14.24 31.19,-17.05 45.33,-6.35 410.51,308.72 835.73,608.87 1264.08,892.21 14.8,9.82 18.94,29.87 9.12,44.64 -6.22,9.5 -16.48,14.62 -26.93,14.62z"/>

<path class="fil2" d="M8345.35 8944.9l-18.81 -6.13 -1201.73 -863.04c-14.46,-10.45 -17.8,-30.62 -7.35,-45.11 10.39,-14.59 30.53,-17.81 45.02,-7.45l1201.82 863.13c14.37,10.36 17.71,30.63 7.36,45.11 -6.35,8.81 -16.26,13.48 -26.3,13.48z"/>

<path class="fil2" d="M8340.23 8365.64l-18.59 -5.81c-401.07,-281.2 -802.24,-573.35 -1192.38,-868.25 -14.14,-10.8 -17.02,-30.97 -6.22,-45.21 10.7,-14.27 30.97,-17.05 45.21,-6.35 389.48,294.46 790.08,586.13 1190.49,866.92 14.59,10.23 18.15,30.28 7.89,44.99 -6.25,8.9 -16.26,13.7 -26.39,13.7z"/>

<path class="fil2" d="M8383.68 7830.27l-19.51 -6.57 -809.11 -613.67c-14.24,-10.7 -17.05,-30.97 -6.22,-45.24 10.67,-14.24 31.07,-16.92 45.21,-6.22l809.12 613.67c14.27,10.8 17.05,31.06 6.25,45.21l-25.73 12.81z"/>

<path class="fil2" d="M8382.54 7316.62l-20.05 -7.01 -207.48 -165.62c-13.92,-11.15 -16.26,-31.41 -5.11,-45.33 11.15,-14.05 31.41,-16.17 45.33,-5.11l207.48 165.49c13.93,11.14 16.26,31.51 5.11,45.43l-25.29 12.15z"/>

<path class="fil4" d="M7113.22 3202.06c-741.97,0 -1484.03,-3.79 -2225.9,-8.24 -417.2,-8.72 -833.83,-42.69 -1251.39,-42.69 -12.25,0 -24.5,0 -36.75,0 -48.9,-1.1 -97.68,-1.55 -146.58,-1.55 -96.1,0 -192.23,1.77 -288.33,3.44 -96.45,1.8 -192.8,3.47 -289.25,3.47 -119.27,0 -238.55,-2.56 -357.5,-11.27 -1.23,0 -2.43,0.13 -3.57,0.13 -43.66,0 -82.74,-9.25 -116.94,-25.16l0 -391.16 8132.37 0 0 425.44c-43,16.7 -91.11,24.94 -140.33,24.94 -16.7,0 -33.62,-0.98 -50.58,-2.87 -159.93,3.22 -319.96,6.44 -479.9,6.44 -53.13,0 -106.14,-0.31 -159.15,-1.2 -861.93,15.12 -1724.05,20.27 -2586.21,20.27z"/>

<path class="fil2" d="M10529.39 3154.48l0 -425.44 -8132.37 0 0 391.16c-200.47,-94.02 -228.19,-424.02 11.59,-515.77 32.43,-18.85 68.16,-23.83 104.69,-23.83 27.06,0 54.68,2.78 81.42,4.77 68.6,3.47 137.33,4.8 205.93,4.8 34.85,0 69.61,-0.35 104.34,-1.01 174.65,-6.91 349.17,-9.69 523.69,-9.69 563.31,0 1126.52,29.52 1689.65,46.88 260.17,17.62 520.44,22.95 780.83,22.95 341.15,0 682.27,-9.12 1023.51,-11.46 432.8,-6.03 865.59,-8.9 1298.52,-8.9 331.77,0 663.67,1.77 995.32,5.11 31.41,-0.35 62.82,-0.57 94.24,-0.57 252.81,0 505.31,11.14 758,18.28 17.93,1.01 36.53,1.32 55.79,1.32 30.43,0 62.16,-0.88 94.46,-1.77 32.2,-1.01 65.04,-1.89 97.46,-1.89 186.99,0 364.73,30.28 379.44,264.94 -1.23,124.07 -71.28,203.03 -166.5,240.12z"/>

<path class="fil4" d="M8117.69 12947.32c-160.91,0 -321.86,-6.25 -482.78,-12.6 -160.5,-6.25 -321,-12.47 -481.6,-12.47 -62.26,0 -124.61,0.92 -186.87,3.13 -1.11,0.09 -2.24,0.09 -3.35,0.09 -242.81,0 -334.68,-310.94 -173.95,-451.87l0 19.98c0,53.42 43.41,96.89 96.89,96.89l1760.36 0c46.54,0 85.43,-32.99 94.78,-76.87 95.56,110.37 84.29,304.18 -59.04,383.45 -44.76,21.97 -99.22,39.11 -146.89,39.11 -2.91,0 -5.69,0 -8.59,-0.22 -109.01,1.36 -217.83,11.21 -326.88,11.21 -8.78,0 -17.71,0 -26.49,-0.22 -18.5,0.22 -37.09,0.38 -55.59,0.38z"/>

<path class="fil2" d="M8646.4 12590.48l-1760.36 0c-53.48,0 -96.89,-43.47 -96.89,-96.89l0 -19.98c21.25,-18.56 46.88,-34.29 77.16,-45.84 49.69,-22.85 104.81,-25.98 160.38,-25.98 10.26,0 20.49,0.13 30.75,0.22 10.35,0.13 20.62,0.22 30.85,0.22 20.49,0 40.76,-0.44 60.71,-2.08 11.81,-0.13 23.49,-0.22 35.3,-0.22 183.99,0 367.76,11.14 551.41,18.72 83.31,7.2 166.94,9.22 250.83,9.22 53,0 106.01,-0.79 158.93,-1.64 53,-0.79 106.01,-1.58 158.93,-1.58 106.7,0 212.94,3.22 318.2,16.48 49.22,12.22 89,38.42 118.61,72.49 -9.35,43.88 -48.24,76.87 -94.78,76.87z"/>

<path class="fil4" d="M10432.94 12968.57c-31.76,0 -63.83,-3.54 -94.68,-4.77 -177.52,-1.01 -353.15,-31.41 -530.48,-39.56 -2.65,0.13 -5.43,0.22 -8.11,0.22 -217.3,0 -335.12,-291.36 -174.52,-441.22 7.67,-8.49 15.82,-16.07 24.15,-22.76l0 33.12c0,53.42 43.44,96.89 96.92,96.89l783.17 0 0 359.49c-30.18,14.58 -63.05,18.59 -96.45,18.59z"/>

<path class="fil2" d="M10529.39 12949.97l0 -359.49 125.52 0c72.04,122.71 23.17,307.72 -118.83,356.05 -2.24,1.2 -4.48,2.33 -6.69,3.44z"/>

<path class="fil2" d="M10654.91 12590.48l-908.69 0c-53.48,0 -96.92,-43.47 -96.92,-96.89l0 -33.12c51.02,-40.76 114.16,-51.56 178.78,-51.56 34.95,0 70.37,3.16 104.56,6.44 144.34,10.29 289.03,22.54 431.47,48.9l11.68 1.99c15.37,1.3 39.21,2.72 62.48,2.72 0.57,0 1.11,0 1.67,0 1.89,0 3.69,0 5.59,0 65.26,0 122.84,30.4 170.83,73.06 15.37,14.49 28.19,30.84 38.55,48.46z"/>

</g>

</g>

</svg>